<?xml version="1.0" encoding="iso-8859-1"?>
<!-- Generator: Adobe Illustrator 19.0.0, SVG Export Plug-In . SVG Version: 6.00 Build 0)  -->
<svg version="1.1" id="Layer_1" xmlns="http://www.w3.org/2000/svg" xmlns:xlink="http://www.w3.org/1999/xlink" x="0px" y="0px"
	 viewBox="0 0 512 512" style="enable-background:new 0 0 512 512;" xml:space="preserve">
<path style="fill:#F1F4FB;" d="M377.749,451.669H82.072c-9.606,0-17.393-7.787-17.393-17.393V42.938
	c0-9.606,7.787-17.393,17.393-17.393h295.677c9.606,0,17.393,7.787,17.393,17.393v391.338
	C395.142,443.882,387.356,451.669,377.749,451.669z"/>
<g>
	<circle style="fill:#FFC850;" cx="142.947" cy="164.688" r="26.089"/>
	<circle style="fill:#FFC850;" cx="142.947" cy="260.348" r="26.089"/>
	<circle style="fill:#FFC850;" cx="142.947" cy="356.009" r="26.089"/>
</g>
<path style="fill:#FFDC64;" d="M377.749,25.546H82.072c-9.606,0-17.393,7.787-17.393,17.393v34.786h330.463V42.938
	C395.142,33.332,387.356,25.546,377.749,25.546z"/>
<path style="fill:#D5DCED;" d="M360.357,303.83c-62.438,0-113.053,50.616-113.053,113.053c0,12.146,1.965,23.82,5.509,34.786
	h124.937c9.605,0,17.393-7.788,17.393-17.393V309.34C384.176,305.796,372.502,303.83,360.357,303.83z"/>
<circle style="fill:#FFDC64;" cx="360.357" cy="416.883" r="86.964"/>
<path style="fill:#FFC850;" d="M403.839,486.454c-48.029,0-86.964-38.935-86.964-86.964c0-28.197,13.479-53.185,34.28-69.074
	c-43.7,4.598-77.762,41.548-77.762,86.467c0,48.029,38.935,86.964,86.964,86.964c19.832,0,38.053-6.714,52.684-17.89
	C410.015,486.276,406.948,486.454,403.839,486.454z"/>
<polygon style="fill:#FFFFFF;" points="360.357,443.324 329.912,460.365 336.711,426.144 311.096,402.456 345.744,398.348 
	360.357,366.665 374.97,398.348 409.617,402.456 384.002,426.144 390.802,460.365 "/>
<path d="M247.304,443.516H82.072c-5.095,0-9.24-4.145-9.24-9.24V42.938c0-5.095,4.145-9.24,9.24-9.24h17.936v9.24
	c0,4.503,3.65,8.153,8.153,8.153c4.503,0,8.153-3.65,8.153-8.153v-9.24h18.48v9.24c0,4.503,3.65,8.153,8.153,8.153
	s8.153-3.65,8.153-8.153v-9.24h18.48v9.24c0,4.503,3.65,8.153,8.153,8.153c4.503,0,8.153-3.65,8.153-8.153v-9.24h18.48v9.24
	c0,4.503,3.65,8.153,8.153,8.153c4.503,0,8.153-3.65,8.153-8.153v-9.24h18.48v9.24c0,4.503,3.65,8.153,8.153,8.153
	c4.503,0,8.153-3.65,8.153-8.153v-9.24h18.48v9.24c0,4.503,3.65,8.153,8.153,8.153c4.503,0,8.153-3.65,8.153-8.153v-9.24h18.48v9.24
	c0,4.503,3.65,8.153,8.153,8.153s8.153-3.65,8.153-8.153v-9.24h18.48v9.24c0,4.503,3.65,8.153,8.153,8.153
	c4.503,0,8.153-3.65,8.153-8.153v-9.24h17.936c5.095,0,9.24,4.145,9.24,9.24v260.894c0,4.503,3.65,8.153,8.153,8.153
	s8.153-3.65,8.153-8.153V42.938c0-14.086-11.46-25.546-25.546-25.546h-17.936v-9.24c0-4.503-3.65-8.153-8.153-8.153
	c-4.503,0-8.153,3.65-8.153,8.153v9.24h-18.48v-9.24c0-4.503-3.65-8.153-8.153-8.153s-8.153,3.65-8.153,8.153v9.24h-18.48v-9.24
	c0-4.503-3.65-8.153-8.153-8.153c-4.503,0-8.153,3.65-8.153,8.153v9.24h-18.48v-9.24c0-4.503-3.65-8.153-8.153-8.153
	c-4.503,0-8.153,3.65-8.153,8.153v9.24h-18.48v-9.24c0-4.503-3.65-8.153-8.153-8.153c-4.503,0-8.153,3.65-8.153,8.153v9.24h-18.48
	v-9.24c0-4.503-3.65-8.153-8.153-8.153c-4.503,0-8.153,3.65-8.153,8.153v9.24H151.1v-9.24c0-4.503-3.65-8.153-8.153-8.153
	s-8.153,3.65-8.153,8.153v9.24h-18.48v-9.24c0-4.503-3.65-8.153-8.153-8.153c-4.503,0-8.153,3.65-8.153,8.153v9.24H82.072
	c-14.086,0-25.546,11.46-25.546,25.546v391.338c0,14.086,11.46,25.546,25.546,25.546h165.231c4.503,0,8.153-3.65,8.153-8.153
	C255.456,447.166,251.806,443.516,247.304,443.516z"/>
<path d="M360.357,321.766c-52.448,0-95.117,42.669-95.117,95.117S307.909,512,360.357,512s95.117-42.669,95.117-95.117
	S412.805,321.766,360.357,321.766z M360.357,495.694c-43.457,0-78.811-35.354-78.811-78.811s35.354-78.811,78.811-78.811
	s78.811,35.354,78.811,78.811S403.814,495.694,360.357,495.694z"/>
<path d="M417.371,399.936c-0.983-3.025-3.635-5.203-6.794-5.577l-30.116-3.571L367.76,363.25c-1.333-2.888-4.223-4.737-7.404-4.737
	s-6.071,1.849-7.404,4.737l-12.702,27.538l-30.115,3.571c-3.158,0.374-5.81,2.551-6.794,5.577c-0.983,3.024-0.116,6.345,2.219,8.505
	l22.265,20.59l-5.91,29.745c-0.62,3.12,0.632,6.316,3.205,8.185c2.573,1.87,5.999,2.072,8.774,0.518l26.463-14.812l26.463,14.812
	c1.241,0.695,2.613,1.039,3.982,1.039c1.688,0,3.371-0.524,4.793-1.557c2.573-1.87,3.824-5.065,3.205-8.185l-5.91-29.745
	l22.265-20.59C417.489,406.281,418.355,402.96,417.371,399.936z M378.467,420.159c-2.082,1.925-3.013,4.794-2.461,7.575
	l3.355,16.885l-15.022-8.408c-1.237-0.692-2.609-1.038-3.982-1.038c-1.373,0-2.745,0.346-3.982,1.038l-15.022,8.408l3.355-16.885
	c0.552-2.781-0.379-5.649-2.461-7.575l-12.639-11.688l17.096-2.026c2.815-0.335,5.255-2.107,6.443-4.682l7.21-15.632l7.21,15.632
	c1.188,2.575,3.627,4.347,6.443,4.682l17.096,2.026L378.467,420.159z"/>
<path d="M368.51,77.724c0-4.503-3.65-8.153-8.153-8.153H99.465c-4.503,0-8.153,3.65-8.153,8.153c0,4.503,3.65,8.153,8.153,8.153
	h260.892C364.859,85.877,368.51,82.227,368.51,77.724z"/>
<path d="M169.036,156.535c-4.503,0-8.153,3.65-8.153,8.153c0,9.89-8.046,17.936-17.936,17.936s-17.936-8.046-17.936-17.936
	c0-9.89,8.046-17.936,17.936-17.936c4.503,0,8.153-3.65,8.153-8.153c0-4.503-3.65-8.153-8.153-8.153
	c-18.881,0-34.242,15.361-34.242,34.242s15.361,34.242,34.242,34.242s34.242-15.361,34.242-34.242
	C177.189,160.185,173.539,156.535,169.036,156.535z"/>
<path d="M169.036,252.195c-4.503,0-8.153,3.65-8.153,8.153c0,9.89-8.046,17.936-17.936,17.936s-17.936-8.046-17.936-17.936
	c0-9.89,8.046-17.936,17.936-17.936c4.503,0,8.153-3.65,8.153-8.153c0-4.503-3.65-8.153-8.153-8.153
	c-18.881,0-34.242,15.361-34.242,34.242c0,18.881,15.361,34.242,34.242,34.242s34.242-15.361,34.242-34.242
	C177.189,255.846,173.539,252.195,169.036,252.195z"/>
<path d="M203.822,285.894h139.142c4.503,0,8.153-3.65,8.153-8.153s-3.65-8.153-8.153-8.153H203.822c-4.503,0-8.153,3.65-8.153,8.153
	S199.319,285.894,203.822,285.894z"/>
<path d="M203.822,251.108h104.357c4.503,0,8.153-3.65,8.153-8.153c0-4.503-3.65-8.153-8.153-8.153H203.822
	c-4.503,0-8.153,3.65-8.153,8.153C195.669,247.458,199.319,251.108,203.822,251.108z"/>
<path d="M247.304,365.248h-43.482c-4.503,0-8.153,3.65-8.153,8.153c0,4.503,3.65,8.153,8.153,8.153h43.482
	c4.503,0,8.153-3.65,8.153-8.153C255.456,368.899,251.806,365.248,247.304,365.248z"/>
<path d="M272.849,338.616c0-4.503-3.65-8.153-8.153-8.153h-60.875c-4.503,0-8.153,3.65-8.153,8.153s3.65,8.153,8.153,8.153h60.875
	C269.199,346.769,272.849,343.118,272.849,338.616z"/>
<path d="M342.964,173.928H203.822c-4.503,0-8.153,3.65-8.153,8.153s3.65,8.153,8.153,8.153h139.142c4.503,0,8.153-3.65,8.153-8.153
	S347.466,173.928,342.964,173.928z"/>
<path d="M203.822,155.448h104.357c4.503,0,8.153-3.65,8.153-8.153c0-4.503-3.65-8.153-8.153-8.153H203.822
	c-4.503,0-8.153,3.65-8.153,8.153C195.669,151.798,199.319,155.448,203.822,155.448z"/>
<path d="M142.947,338.072c4.503,0,8.153-3.65,8.153-8.153s-3.65-8.153-8.153-8.153c-18.881,0-34.242,15.361-34.242,34.242
	c0,18.881,15.361,34.242,34.242,34.242s34.242-15.361,34.242-34.242c0-4.503-3.65-8.153-8.153-8.153s-8.153,3.65-8.153,8.153
	c0,9.89-8.046,17.936-17.936,17.936s-17.936-8.046-17.936-17.936S133.057,338.072,142.947,338.072z"/>
<g>
</g>
<g>
</g>
<g>
</g>
<g>
</g>
<g>
</g>
<g>
</g>
<g>
</g>
<g>
</g>
<g>
</g>
<g>
</g>
<g>
</g>
<g>
</g>
<g>
</g>
<g>
</g>
<g>
</g>
</svg>
